<svg width="402" height="402" viewBox="0 0 402 402" fill="none" xmlns="http://www.w3.org/2000/svg">
<rect width="402" height="402" fill="#E50038"/>
<path d="M205.236 216.288C211.79 278.127 243.964 299.995 243.964 299.995C243.964 299.995 246.228 257.348 205.236 216.288Z" fill="white"/>
<path d="M209.368 212.159C240.429 263.336 277.846 265.559 277.846 265.559C277.846 265.559 262.435 226.587 209.368 212.159Z" fill="white"/>
<path d="M211.354 206.216C259.773 234.935 293.734 217.014 293.734 217.014C293.734 217.014 264.182 190.7 211.354 206.216Z" fill="white"/>
<path d="M210.718 199.91C265.254 199.501 287.975 165.474 287.975 165.474C287.975 165.474 251.114 158.079 210.718 199.91Z" fill="white"/>
<path d="M204.521 198.185C252.623 168.74 258.78 126.592 258.78 126.592C258.78 126.592 223.15 139.613 204.521 198.185Z" fill="white"/>
<path d="M199.595 195.282C230.101 143.606 218.343 103 218.343 103C218.343 103 192.128 133.534 199.595 195.282Z" fill="white"/>
<path d="M194.074 195.327C199.913 133.352 172.903 103.726 172.903 103.726C172.903 103.726 162.258 144.695 194.074 195.327Z" fill="white"/>
<path d="M189.19 198.276C169.011 140.385 133.024 128.588 133.024 128.588C133.024 128.588 140.373 170.51 189.19 198.276Z" fill="white"/>
<path d="M186.091 203.539C144.623 163.069 108 171.78 108 171.78C108 171.78 131.554 204.991 186.091 203.539Z" fill="white"/>
</svg>
