<?xml version="1.0" encoding="UTF-8"?>
<svg id="_레이어_1" data-name="레이어_1" xmlns="http://www.w3.org/2000/svg" version="1.1" viewBox="0 0 160 100">
  <!-- Generator: Adobe Illustrator 30.0.0, SVG Export Plug-In . SVG Version: 2.1.1 Build 91)  -->
  <defs>
    <style>
      .st0 {
        fill: #231815;
      }

      .st1 {
        fill: #e3007f;
      }

      .st2 {
        fill: #f29600;
      }

      .st3 {
        fill: #e50038;
      }

      .st4 {
        fill: #c8c9ca;
      }
    </style>
  </defs>
  <g>
    <path class="st3" d="M116.16,42.63c1.4,11.31,8.24,15.31,8.24,15.31,0,0,.49-7.8-8.24-15.31Z"/>
    <path class="st3" d="M117.05,41.87c6.61,9.36,14.57,9.77,14.57,9.77,0,0-3.28-7.13-14.57-9.77Z"/>
    <path class="st3" d="M117.47,40.78c10.3,5.25,17.53,1.97,17.53,1.97,0,0-6.29-4.8-17.53-1.97Z"/>
    <path class="st3" d="M117.33,39.64c11.61-.08,16.44-6.29,16.44-6.29,0,0-7.84-1.36-16.44,6.29Z"/>
    <path class="st3" d="M116.01,39.32c10.23-5.38,11.55-13.1,11.55-13.1,0,0-7.58,2.39-11.55,13.1Z"/>
    <path class="st3" d="M114.96,38.78c6.49-9.45,3.99-16.88,3.99-16.88,0,0-5.57,5.58-3.99,16.88Z"/>
    <path class="st3" d="M113.79,38.79c1.24-11.33-4.5-16.75-4.5-16.75,0,0-2.27,7.5,4.5,16.75Z"/>
    <path class="st1" d="M112.75,39.33c-4.29-10.58-11.95-12.75-11.95-12.75,0,0,1.56,7.67,11.95,12.75Z"/>
    <path class="st2" d="M112.09,40.3c-8.83-7.41-16.62-5.81-16.62-5.81,0,0,5.02,6.07,16.62,5.81Z"/>
  </g>
  <path class="st0" d="M70.58,51.46c0-1.26.27-2.42.82-3.49.55-1.07,1.35-2.01,2.4-2.81.78-.59,1.63-1.04,2.53-1.36.91-.32,1.82-.48,2.74-.48,1.17,0,2.31.25,3.4.76,1.09.5,2.05,1.22,2.88,2.14,1.33,1.5,2.01,3.2,2.01,5.1,0,.96-.18,1.88-.53,2.77-.35.89-.86,1.7-1.52,2.43-.82.91-1.8,1.62-2.92,2.12-1.12.5-2.29.75-3.52.75s-2.37-.24-3.47-.73c-1.1-.48-2.05-1.17-2.85-2.06-.63-.69-1.12-1.48-1.45-2.37-.34-.88-.51-1.8-.51-2.76ZM73.33,51.63c0,2.17.6,4,1.81,5.49.54.67,1.11,1.15,1.72,1.45.61.3,1.3.45,2.1.45s1.5-.15,2.11-.45c.61-.3,1.18-.79,1.73-1.46,1.21-1.49,1.81-3.34,1.81-5.54,0-1.21-.17-2.34-.5-3.42-.33-1.08-.8-1.99-1.4-2.74-.49-.61-1.03-1.06-1.63-1.34-.6-.28-1.31-.42-2.12-.42s-1.51.14-2.1.41c-.59.28-1.14.73-1.64,1.35-.6.75-1.07,1.66-1.4,2.73-.33,1.08-.49,2.24-.49,3.47Z"/>
  <path class="st0" d="M95.78,43.71v.26c-.46.02-.84.08-1.12.18-.29.1-.55.25-.77.47-.32.3-.51.71-.58,1.25-.05.4-.07.85-.07,1.37v8.24c0,.62.03,1.11.1,1.46.07.36.17.64.32.86.21.3.48.52.81.67.33.14.77.23,1.32.26v.26h-7.74v-.26c.47-.02.85-.08,1.13-.18.29-.1.54-.25.76-.46.26-.24.43-.54.52-.91.09-.37.13-.93.13-1.7v-8.24c0-.77-.04-1.34-.13-1.7-.09-.37-.26-.67-.52-.91-.22-.21-.47-.37-.76-.47-.29-.1-.67-.16-1.13-.18v-.26h7.74Z"/>
  <path class="st0" d="M103.53,44.01c-.51,0-2.35.04-3.35.48-.6.27-1.12.63-1.51,1.2-.37.52-.65,1.23-.84,2.13l-.28-.02.23-4.1h14.4l.24,4.1-.28.02c-.22-1.04-.56-1.83-1.03-2.36-.46-.53-1.14-.92-2.03-1.15-.75-.2-1.1-.3-2.9-.3v11.45c0,.76.05,1.33.14,1.7.09.37.27.67.52.91.23.22.48.38.77.47.29.1.66.16,1.12.18v.26h-7.73v-.26c.46-.02.84-.08,1.12-.18.29-.1.54-.25.77-.47.25-.24.42-.54.51-.91.09-.37.14-.93.14-1.7v-11.45Z"/>
  <path class="st0" d="M36.83,43.71v.26c.44.02.8.08,1.07.18.27.1.52.25.74.47.24.24.4.54.49.91.09.37.13.93.13,1.7v8.08l-8.14-10.01c-1.19-1.4-2.5-1.57-2.8-1.59h-3.32v.26c.45.02,1.17.08,1.44.18.28.1.52.25.73.47.24.24.41.55.5.92.09.37.13.93.13,1.68v8.26c0,.76-.04,1.32-.13,1.69-.09.37-.25.67-.5.91-.21.22-.46.37-.73.47-.28.1-.99.16-1.43.18v.26h5.73v-.26c-.44-.02-.8-.08-1.07-.18-.28-.1-.52-.25-.74-.47-.24-.24-.4-.54-.49-.91-.09-.37-.13-.93-.13-1.7v-9.73l10.95,13.24h.52v-11.77c0-.75.04-1.31.13-1.68.09-.37.25-.67.49-.92.43-.43,1.04-.65,1.81-.65v-.26h-5.37Z"/>
  <path class="st0" d="M65.59,43.71v.26c.44.02.8.08,1.07.18.28.1.52.25.74.47.24.24.41.54.49.91.09.37.13.93.13,1.7v8.08l-8.14-10.01c-1.19-1.4-2.5-1.57-2.8-1.59h-3.32v.26c.44.02,1.16.08,1.44.18.27.1.52.25.73.47.24.24.4.55.49.92.09.37.13.93.13,1.68v10.4c.08.36.31.66.5.94v-12.82l10.95,13.24h.52v-11.77c0-.75.05-1.31.13-1.68.09-.37.25-.67.49-.92.43-.43,1.04-.65,1.81-.65v-.26h-5.37Z"/>
  <path class="st0" d="M54.96,55.94c-.03-.06-.06-.12-.09-.18-.08-.17-.12-.27-.12-.27-.12-.27-5.26-13.04-5.26-13.04h-.45l-4.38,11.62c-.4.99-.72,1.73-.96,2.23-.24.49-.5.9-.75,1.21-.3.39-.61.68-.93.85-.32.17-.69.28-1.11.3v.27h5.4v-.27c-.49-.04-.89-.16-1.2-.37-.22-.16-.4-.36-.53-.6-.13-.25-.2-.51-.2-.79,0-.49.18-1.16.54-2.01l.3-.72.72-1.82,2.47-6.19,2.6,6.19,1.06,2.29c3.58,9.55,13.1,6.95,13.1,6.95-7.16.55-8.82-2.83-10.18-5.65Z"/>
  <path class="st4" d="M49.02,42.42l5.58,14.1c2.9,6.63,10.53,5.07,10.53,5.07-7.16.55-8.59-2.86-9.95-5.67-.03-.06-5.47-13.49-5.47-13.49h-.7"/>
</svg>